# File created by Blade
# Date/Time:  Tue Jan 27 19:05:11 2015
#---------------------------------------------------------
:version 1.10
:name HOM
:units
  mass 1.0
  length 1.000000
  angle deg
:documentation
     Acclaim Skeleton File
:root
   axis xyz
   order TX TY TZ RX RY RZ
   position 0.000000 0.000000 0.000000
   orientation 0 0 0
:bonedata
   begin
      id 1
      name Spine_dum
      direction 0.000000 1.000000 0.000000
      length 5.195262
      axis 0.0 0.0 0.0 xyz
   end
   begin
      id 2
      name LeftUpLeg_dum
      direction 1.000000 0.000000 0.000000
      length 3.351363
      axis 0.0 0.0 0.0 xyz
   end
   begin
      id 3
      name RightUpLeg_dum
      direction -1.000000 0.000000 0.000000
      length 3.351363
      axis 0.0 0.0 0.0 xyz
   end
   begin
      id 4
      name Spine
      direction 0.000000 1.000000 0.000000
      length 0.000000
      axis 0.0 0.0 0.0 xyz
      dof rx ry rz
   end
   begin
      id 5
      name Spine_dum1
      direction 0.000000 1.000000 0.000000
      length 15.653875
      axis 0.0 0.0 0.0 xyz
   end
   begin
      id 6
      name Spine_dum2
      direction 0.000000 1.000000 0.000000
      length 10.329768
      axis 0.0 0.0 0.0 xyz
   end
   begin
      id 7
      name Spine_dum3
      direction 0.000000 1.000000 0.000000
      length 10.329768
      axis 0.0 0.0 0.0 xyz
   end
   begin
      id 8
      name Head
      direction 0.000000 1.000000 0.000000
      length 4.527550
      axis 0.0 0.0 0.0 xyz
      dof rx ry rz
   end
   begin
      id 9
      name LeftShoulder
      direction 1.000000 0.000000 0.000000
      length 6.996006
      axis 0.0 0.0 -90.0 xyz
      dof rx ry rz
   end
   begin
      id 10
      name LeftArm
      direction 1.000000 0.000000 0.000000
      length 10.209302
      axis 0.0 0.0 -90.0 xyz
      dof rx ry rz
   end
   begin
      id 11
      name LeftForeArm
      direction 1.000000 0.000000 0.000000
      length 8.563163
      axis 0.0 0.0 -90.0 xyz
      dof ry rz rx
   end
   begin
      id 12
      name LeftHand
      direction 0.000000 0.000000 0.000000
      length 0.000000
      axis 0.0 0.0 -90.0 xyz
      dof rx ry rz
   end
   begin
      id 13
      name LeftHand_dum1
      direction 0.000000 0.000000 0.000000
      length 0.000000
      axis 0.0 0.0 -90.0 xyz
   end
   begin
      id 14
      name LeftHand_dum2
      direction 1.000000 0.000000 0.000000
      length 3.937000
      axis 0.0 0.0 -90.0 xyz
   end
   begin
      id 15
      name LeftHandThumb1
      direction 0.000000 0.000000 1.000000
      length 3.937000
      axis 0.0 0.0 -90.0 xyz
      dof rx rz ry
   end
   begin
      id 16
      name RightShoulder
      direction -1.000000 0.000000 0.000000
      length 6.996006
      axis 0.0 0.0 90.0 xyz
      dof rx ry rz
   end
   begin
      id 17
      name RightArm
      direction -1.000000 0.000000 0.000000
      length 10.209302
      axis 0.0 0.0 90.0 xyz
      dof rx ry rz
   end
   begin
      id 18
      name RightForeArm
      direction -1.000000 0.000000 0.000000
      length 8.563163
      axis 0.0 0.0 90.0 xyz
      dof ry rz rx
   end
   begin
      id 19
      name RightHand
      direction 0.000000 0.000000 0.000000
      length 0.000000
      axis 0.0 0.0 90.0 xyz
      dof rx ry rz
   end
   begin
      id 20
      name RightHand_dum1
      direction 0.000000 0.000000 0.000000
      length 0.000000
      axis 0.0 0.0 90.0 xyz
   end
   begin
      id 21
      name RightHand_dum2
      direction -1.000000 0.000000 0.000000
      length 3.937000
      axis 0.0 0.0 90.0 xyz
   end
   begin
      id 22
      name RightHandThumb1
      direction 0.000000 0.000000 1.000000
      length 3.937000
      axis 0.0 0.0 90.0 xyz
      dof rx rz ry
   end
   begin
      id 23
      name LeftUpLeg
      direction 0.000000 -1.000000 0.000000
      length 16.346831
      axis 0.0 0.0 0.0 xyz
      dof rx ry rz
   end
   begin
      id 24
      name LeftLeg
      direction 0.000000 -1.000000 0.000000
      length 13.959795
      axis 0.0 0.0 0.0 xyz
      dof rx ry rz
   end
   begin
      id 25
      name LeftFoot
      direction 0.000000 -0.258819 0.965926
      length 5.165550
      axis 15.0 0.0 0.0 xyz
      dof rx ry rz
   end
   begin
      id 26
      name LeftToeBase
      direction 0.000000 0.000000 1.000000
      length 2.952750
      axis 0.0 0.0 0.0 xyz
      dof rx ry rz
   end
   begin
      id 27
      name RightUpLeg
      direction 0.000000 -1.000000 0.000000
      length 16.346831
      axis 0.0 0.0 0.0 xyz
      dof rx ry rz
   end
   begin
      id 28
      name RightLeg
      direction 0.000000 -1.000000 0.000000
      length 13.959795
      axis 0.0 0.0 0.0 xyz
      dof rx ry rz
   end
   begin
      id 29
      name RightFoot
      direction 0.000000 -0.258819 0.965926
      length 5.165550
      axis 15.0 0.0 0.0 xyz
      dof rx ry rz
   end
   begin
      id 30
      name RightToeBase
      direction 0.000000 0.000000 1.000000
      length 2.952750
      axis 0.0 0.0 0.0 xyz
      dof rx ry rz
   end
:hierarchy
   begin
      root Spine_dum LeftUpLeg_dum RightUpLeg_dum
      Spine_dum Spine
      LeftUpLeg_dum LeftUpLeg
      RightUpLeg_dum RightUpLeg
      Spine Spine_dum1 Spine_dum2 Spine_dum3
      Spine_dum1 Head
      Spine_dum2 LeftShoulder
      Spine_dum3 RightShoulder
      LeftShoulder LeftArm
      LeftArm LeftForeArm
      LeftForeArm LeftHand
      LeftHand LeftHand_dum1 LeftHand_dum2
      LeftHand_dum1 LeftHandThumb1
      RightShoulder RightArm
      RightArm RightForeArm
      RightForeArm RightHand
      RightHand RightHand_dum1 RightHand_dum2
      RightHand_dum1 RightHandThumb1
      LeftUpLeg LeftLeg
      LeftLeg LeftFoot
      LeftFoot LeftToeBase
      RightUpLeg RightLeg
      RightLeg RightFoot
      RightFoot RightToeBase
   end

# File created by Blade
# Date/Time:  Tue Jan 27 19:05:02 2015
# Frame Rate: 120.000 fps
#------------------------------------------------------
:FULLY-SPECIFIED
:DEGREES
1722
root -2.100898 31.472880 -4.380028 5.483725 -14.695756 -3.370488
Spine -0.057119 -2.187091 -1.273012
Head 26.798059 -3.622437 1.605373
LeftShoulder -20.278344 19.705145 13.634116
LeftArm 6.609989 -48.475658 -75.744355
LeftForeArm -6.421826 0.000000 101.514808
LeftHand -13.550480 -0.000000 22.577737
LeftHandThumb1 -26.253704 0.000000 33.147579
RightShoulder -12.876381 -4.094502 -9.939372
RightArm 7.079756 -27.688309 82.061892
RightForeArm -24.538852 0.000000 19.617430
RightHand -14.407277 -0.000000 9.931754
RightHandThumb1 -24.326973 -0.000000 -32.862282
LeftUpLeg -7.156236 1.343837 -8.073981
LeftLeg 17.338976 -0.000000 -0.000000
LeftFoot -28.755513 28.562682 -14.852818
LeftToeBase 10.917873 -0.000000 -0.000000
RightUpLeg -26.886764 -38.610224 4.455813
RightLeg 91.844813 -0.000000 -0.000000
RightFoot -18.577246 -6.350926 33.141380
RightToeBase 5.111314 -0.000000 -0.000000
1723
root -2.095799 31.473805 -4.378068 5.484227 -14.759960 -3.382294
Spine -0.081405 -2.205847 -1.276812
Head 26.910298 -3.521641 1.556609
LeftShoulder -20.278139 19.716225 13.590509
LeftArm 6.620356 -48.502037 -75.739396
LeftForeArm -6.310834 0.000000 101.581633
LeftHand -13.544647 -0.000000 22.553259
LeftHandThumb1 -26.253704 0.000000 33.147579
RightShoulder -12.881102 -4.121183 -9.907446
RightArm 7.155668 -27.601588 82.017322
RightForeArm -24.498433 -0.000000 19.747087
RightHand -14.453284 0.000000 10.004342
RightHandThumb1 -24.326973 -0.000000 -32.862282
LeftUpLeg -7.130653 1.423487 -8.082309
LeftLeg 17.281173 -0.000000 -0.000000
LeftFoot -28.715904 28.584013 -14.800915
LeftToeBase 10.888500 -0.000000 -0.000000
RightUpLeg -26.888384 -38.542225 4.438700
RightLeg 91.818020 -0.000000 -0.000000
RightFoot -18.566911 -6.308860 33.189866
RightToeBase 5.057929 -0.000000 -0.000000
1724
root -2.091219 31.474752 -4.373095 5.472347 -14.828587 -3.383961
Spine -0.110421 -2.213982 -1.293375
Head 27.038281 -3.433150 1.523271
LeftShoulder -20.281967 19.745597 13.547569
LeftArm 6.691156 -48.497677 -75.793384
LeftForeArm -6.260216 0.000000 101.663433
LeftHand -13.536888 -0.000000 22.660736
LeftHandThumb1 -26.253704 0.000000 33.147579
RightShoulder -12.876346 -3.918182 -9.944595
RightArm 6.946961 -27.524763 82.114276
RightForeArm -24.428681 -0.000000 19.879082
RightHand -14.467599 -0.000000 10.075935
RightHandThumb1 -24.326973 -0.000000 -32.862282
LeftUpLeg -7.073729 1.474983 -8.094440
LeftLeg 17.196163 -0.000000 -0.000000
LeftFoot -28.654176 28.611030 -14.725851
LeftToeBase 10.822709 -0.000000 -0.000000
RightUpLeg -26.855926 -38.478149 4.394021
RightLeg 91.776797 -0.000000 -0.000000
RightFoot -18.553720 -6.268910 33.182060
RightToeBase 5.133604 -0.000000 -0.000000
1725
root -2.086465 31.476274 -4.367765 5.476192 -14.898278 -3.391280
Spine -0.158060 -2.206315 -1.304288
Head 27.170935 -3.334281 1.512095
LeftShoulder -20.289776 19.776198 13.507984
LeftArm 6.738285 -48.481041 -75.844254
LeftForeArm -6.081573 -0.000000 101.759167
LeftHand -13.587277 -0.000000 22.615827
LeftHandThumb1 -26.253704 0.000000 33.147579
RightShoulder -12.898552 -3.917452 -9.928939
RightArm 6.972605 -27.428568 82.093321
RightForeArm -24.395135 -0.000000 19.993330
RightHand -14.502831 -0.000000 10.073706
RightHandThumb1 -24.326973 -0.000000 -32.862282
LeftUpLeg -7.025213 1.550981 -8.108061
LeftLeg 17.092795 -0.000000 -0.000000
LeftFoot -28.622044 28.633561 -14.713832
LeftToeBase 10.865043 -0.000000 -0.000000
RightUpLeg -26.839635 -38.411913 4.361767
RightLeg 91.742173 -0.000000 -0.000000
RightFoot -18.505482 -6.240327 33.165916
RightToeBase 5.212777 -0.000000 -0.000000
1726
root -2.082455 31.478618 -4.363541 5.476825 -14.956206 -3.401113
Spine -0.196925 -2.226678 -1.315423
Head 27.305436 -3.212385 1.497037
LeftShoulder -20.289271 19.745148 13.449243
LeftArm 6.689797 -48.493743 -75.772504
LeftForeArm -5.972867 -0.000000 101.885793
LeftHand -13.655399 -0.000000 22.528273
LeftHandThumb1 -26.253704 0.000000 33.147579
RightShoulder -12.889005 -3.859026 -9.919850
RightArm 6.940685 -27.338586 82.094523
RightForeArm -24.392437 0.000000 20.087552
RightHand -14.465381 -0.000000 10.032073
RightHandThumb1 -24.326973 -0.000000 -32.862282
LeftUpLeg -6.972827 1.618738 -8.108676
LeftLeg 17.006206 -0.000000 -0.000000
LeftFoot -28.575884 28.591933 -14.680982
LeftToeBase 10.805073 -0.000000 -0.000000
RightUpLeg -26.809367 -38.355620 4.324338
RightLeg 91.705919 -0.000000 -0.000000
RightFoot -18.440528 -6.168263 33.221019
RightToeBase 5.324738 -0.000000 -0.000000
1727
root -2.077798 31.481433 -4.359122 5.485987 -15.008255 -3.407599
Spine -0.247860 -2.242485 -1.327536
Head 27.435999 -3.092364 1.490614
LeftShoulder -20.305901 19.733798 13.386301
LeftArm 6.713414 -48.479421 -75.780400
LeftForeArm -5.802645 -0.000000 102.005387
LeftHand -13.702876 -0.000000 22.413190
LeftHandThumb1 -26.253704 0.000000 33.147579
RightShoulder -12.898334 -3.838850 -9.913323
RightArm 6.964225 -27.267644 82.074498
RightForeArm -24.354017 -0.000000 20.168514
RightHand -14.499034 0.000000 10.008187
RightHandThumb1 -24.326973 -0.000000 -32.862282
LeftUpLeg -6.922995 1.695583 -8.120979
LeftLeg 16.876162 -0.000000 -0.000000
LeftFoot -28.480206 28.652893 -14.572649
LeftToeBase 10.803394 -0.000000 -0.000000
RightUpLeg -26.787408 -38.315925 4.288421
RightLeg 91.675746 -0.000000 -0.000000
RightFoot -18.357602 -6.140270 33.182595
RightToeBase 5.190652 -0.000000 -0.000000
